{"title":"G.I. Joe Retaliation 2013 TS V2 NewSource XviD Feel-Free","uid":8336316,"size":1372057891,"categoryP":"video","categoryS":"movies","magnet":"?xt=urn:btih:19ca74453cda85a20ad443ccd0ff99c41e73f2cb&amp;dn=G.I.+Joe+Retaliation+2013+TS+V2+NewSource+XviD+Feel-Free&amp;tr=udp%3A%2F%2Ftracker.openbittorrent.com%3A80&amp;tr=udp%3A%2F%2Fopen.demonii.com%3A1337&amp;tr=udp%3A%2F%2Ftracker.coppersurfer.tk%3A6969&amp;tr=udp%3A%2F%2Fexodus.desync.com%3A6969","seeders":1,"leechers":0,"uploader":"Gh0stNet","files":8,"time":1364994536,"description":"Genre:Action | Adventure | Sci-Fi\nLanguage:English\nIMDb:http://www.imdb.com/title/tt1583421\nSource:HDTS-Screener.sC0rp/Audio:UnKnOwN Thanks\nSample:Never\nEncoder:Tony\n\nFormat                                   : AVI\nFormat/Info                              : Audio Video Interleave\nFile size                                : 1.28 GiB\nDuration                                 : 1h 40mn\nOverall bit rate                         : 1 814 Kbps\n\n\nVideo\nID                                       : 0\nFormat                                   : MPEG-4 Visual\nFormat profile                           : Advanced Simple@L5\nFormat settings, BVOP                    : 1\nFormat settings, QPel                    : No\nFormat settings, GMC                     : No warppoints\nFormat settings, Matrix                  : Default (H.263)\nCodec ID                                 : XVID\nCodec ID/Hint                            : XviD\nDuration                                 : 1h 40mn\nBit rate                                 : 1 644 Kbps\nWidth                                    : 640 pixels\nHeight                                   : 272 pixels\nDisplay aspect ratio                     : 2.35:1\nFrame rate                               : 23.976 fps\nColor space                              : YUV\nChroma subsampling                       : 4:2:0\nBit depth                                : 8 bits\nScan type                                : Progressive\nCompression mode                         : Lossy\nBits/(Pixel*Frame)                       : 0.394\nStream size                              : 1.16 GiB (91%)\nWriting library                          : XviD 1.2.1 (UTC 2008-12-04)\n\nAudio\nID                                       : 1\nFormat                                   : AC-3\nFormat/Info                              : Audio Coding 3\nMode extension                           : CM (complete main)\nCodec ID                                 : 2000\nDuration                                 : 1h 40mn\nBit rate mode                            : Constant\nBit rate                                 : 160 Kbps\nChannel(s)                               : 2 channels\nChannel positions                        : Front: L R\nSampling rate                            : 48.0 KHz\nBit depth                                : 16 bits\nCompression mode                         : Lossy\nStream size                              : 115 MiB (9%)\nAlignment                                : Aligned on interleaves\nInterleave, duration                     : 42 ms (1.00 video frame)\nInterleave, preload duration             : 512 ms\n\n \nPlot:\nThe G.I. Joes are not only fighting their mortal enemy Cobra; they are forced to contend with threats from within the government that jeopardize their very existence.\n\n","torrent":{"xt":"urn:btih:19ca74453cda85a20ad443ccd0ff99c41e73f2cb","amp;dn":"G.I.+Joe+Retaliation+2013+TS+V2+NewSource+XviD+Feel-Free","amp;tr":["udp%3A%2F%2Ftracker.openbittorrent.com%3A80","udp%3A%2F%2Fopen.demonii.com%3A1337","udp%3A%2F%2Ftracker.coppersurfer.tk%3A6969","udp%3A%2F%2Fexodus.desync.com%3A6969"],"infoHash":"19ca74453cda85a20ad443ccd0ff99c41e73f2cb","infoHashBuffer":{"type":"Buffer","data":[25,202,116,69,60,218,133,162,10,212,67,204,208,255,153,196,30,115,242,203]},"announce":[],"urlList":[]}}